<?xml version="1.0" standalone="no"?>
<!DOCTYPE svg PUBLIC "-//W3C//DTD SVG 20010904//EN"
 "http://www.w3.org/TR/2001/REC-SVG-20010904/DTD/svg10.dtd">
<svg version="1.0" xmlns="http://www.w3.org/2000/svg"
 width="163.000000pt" height="32.000000pt" viewBox="0 0 163.000000 32.000000"
 preserveAspectRatio="xMidYMid meet">

<g transform="translate(0.000000,32.000000) scale(0.100000,-0.100000)"
fill="#000000" stroke="none">
<path d="M502 275 c9 -9 78 -12 78 -3 0 4 -19 8 -42 8 -23 0 -39 -2 -36 -5z"/>
<path d="M595 260 c3 -5 2 -25 -3 -44 -8 -29 -8 -34 5 -29 8 3 12 11 9 19 -3
7 -1 14 4 16 12 4 1 48 -12 48 -5 0 -6 -4 -3 -10z"/>
<path d="M503 245 c-14 -16 -18 -125 -5 -125 5 0 9 24 11 53 1 28 4 60 7 70 6
20 3 21 -13 2z"/>
<path d="M1120 156 c0 -24 -3 -51 -6 -60 -4 -10 -1 -16 9 -16 17 0 27 29 27
83 0 26 -4 37 -15 37 -11 0 -15 -12 -15 -44z"/>
<path d="M566 144 c-11 -29 -7 -64 9 -64 9 0 15 10 15 26 0 17 6 28 20 31 30
8 24 23 -9 23 -17 0 -31 -6 -35 -16z"/>
<path d="M642 148 c-29 -29 -6 -68 40 -68 36 0 37 20 1 21 -25 0 -25 1 -8 8
11 5 24 6 28 4 5 -3 7 5 5 18 -3 27 -45 38 -66 17z m43 -8 c3 -5 -1 -10 -10
-10 -9 0 -13 5 -10 10 3 6 8 10 10 10 2 0 7 -4 10 -10z"/>
<path d="M726 129 c-9 -48 -7 -89 5 -89 6 0 13 9 16 20 3 13 14 20 28 20 29 0
47 22 43 52 -2 19 -10 24 -44 26 -39 3 -42 1 -48 -29z m64 -9 c0 -11 -6 -20
-14 -20 -18 0 -29 16 -21 30 11 18 35 11 35 -10z"/>
<path d="M840 151 c0 -6 10 -11 23 -12 20 -1 19 -2 -5 -11 -17 -6 -28 -17 -28
-29 0 -16 7 -19 41 -19 l40 0 -3 38 c-3 34 -6 37 -35 40 -19 2 -33 -1 -33 -7z
m40 -45 c0 -3 -4 -8 -10 -11 -5 -3 -10 -1 -10 4 0 6 5 11 10 11 6 0 10 -2 10
-4z"/>
<path d="M930 140 c-16 -30 4 -60 40 -60 35 0 41 17 8 22 -13 2 -23 10 -23 18
0 8 10 16 23 18 33 5 27 22 -8 22 -19 0 -33 -7 -40 -20z"/>
<path d="M1021 146 c-8 -9 -11 -26 -7 -41 6 -23 11 -26 44 -23 35 3 37 5 37
38 0 32 -3 35 -31 38 -19 2 -36 -3 -43 -12z m49 -26 c0 -11 -7 -20 -15 -20 -8
0 -15 9 -15 20 0 11 7 20 15 20 8 0 15 -9 15 -20z"/>
<path d="M489 102 c11 -8 11 -10 0 -15 -8 -3 1 -6 19 -6 17 -1 32 4 32 9 0 6
-6 10 -14 10 -8 0 -23 3 -33 6 -13 4 -15 3 -4 -4z"/>
</g>
</svg>
